<svg width="320" height="131" viewBox="0 0 320 131" fill="none" xmlns="http://www.w3.org/2000/svg">
<path d="M0 37.928H8.50729C8.97648 45.7327 14.9068 50.2578 23.0235 50.2578C30.9044 50.2578 35.8226 46.9807 35.8226 41.2837C35.8226 36.4442 31.9976 34.103 25.6767 32.7764L17.0932 30.9044C8.66448 29.1087 1.87437 24.1929 1.87437 15.6856C1.87437 6.55433 10.5365 0 22.3209 0C34.8866 0 42.6127 6.79012 43.2367 17.0908H34.7294C34.3388 11.1605 29.8136 7.02352 22.0089 7.02352C15.376 7.02352 10.3793 10.2245 10.3793 14.983C10.3793 19.5106 13.735 21.7731 19.8226 23.1783L29.2659 25.2075C37.928 27.0795 44.3275 31.8404 44.3275 40.4263C44.3275 49.8696 36.4442 57.2051 22.7877 57.2051C9.05269 57.2051 0.388211 49.7124 0 37.928Z" fill="#008078"/>
<path d="M54.2449 55.9548V1.32666H62.5164V24.0382H90.1437V1.32666H98.4175V55.9572H90.1437V31.0593H62.5164V55.9548H54.2449Z" fill="#008078"/>
<path d="M111.688 55.9548V1.32666H148.135V8.27158H119.959V24.4264H146.963V31.4499H119.959V48.9313H149.147V55.9548H111.688Z" fill="#008078"/>
<path d="M159.612 55.9548V1.32666H177.093C195.122 1.32666 206.359 9.83395 206.359 28.6419C206.359 45.1873 196.682 55.9572 178.265 55.9572H159.612V55.9548ZM167.883 48.9313H177.481C189.968 48.9313 197.773 42.9224 197.773 28.6396C197.773 15.6833 191.295 8.2692 177.248 8.2692H167.883V48.9313Z" fill="#008078"/>
<path d="M0 110.74H8.50729C8.97648 118.545 14.9068 123.07 23.0235 123.07C30.9044 123.07 35.8226 119.793 35.8226 114.096C35.8226 109.256 31.9976 106.915 25.6767 105.589L17.0932 103.717C8.66448 101.921 1.87437 97.005 1.87437 88.4978C1.87437 79.3665 10.5365 72.8121 22.3209 72.8121C34.8866 72.8121 42.6127 79.6023 43.2367 89.9029H34.7294C34.3388 83.9726 29.8136 79.8357 22.0089 79.8357C15.376 79.8357 10.3793 83.0366 10.3793 87.7952C10.3793 92.3227 13.735 94.5853 19.8226 95.9905L29.2659 98.0196C37.928 99.8916 44.3275 104.653 44.3275 113.238C44.3275 122.682 36.4442 130.017 22.7877 130.017C9.05269 130.015 0.388211 122.525 0 110.74Z" fill="#22202F"/>
<path d="M62.5164 74.1364V128.767H54.2449V74.1364H62.5164Z" fill="#22202F"/>
<path d="M75.863 128.767V74.1364H84.1345V121.743H112.229V128.767H75.863Z" fill="#22202F"/>
<path d="M119.571 128.767V74.1364H156.018V81.0813H127.843V97.2361H154.846V104.26H127.843V121.741H157.03V128.765H119.571V128.767Z" fill="#22202F"/>
<path d="M167.493 128.767V74.1364H179.98L206.123 118.7C206.045 116.358 205.966 113.784 205.966 111.286V74.1364H214.316V128.767H203.079L175.688 82.1745C175.767 84.749 175.767 86.9354 175.767 89.198V128.767H167.493Z" fill="#22202F"/>
<path d="M222.831 101.14C222.831 83.8917 234.303 72.8098 249.443 72.8098C262.709 72.8098 271.998 80.8479 273.167 92.3204H264.269C263.021 84.6729 257.87 79.8333 249.284 79.8333C238.747 79.8333 231.49 87.8714 231.49 101.14C231.49 114.563 238.826 123.07 249.205 123.07C257.867 123.07 263.488 117.918 264.815 110.35H273.243C271.838 122.367 262.785 130.017 249.205 130.017C233.367 130.015 222.831 119.245 222.831 101.14Z" fill="#22202F"/>
<path d="M282.539 128.767V74.1364H318.985V81.0813H290.813V97.2361H317.816V104.26H290.813V121.741H320V128.765H282.539V128.767Z" fill="#22202F"/>
<path d="M258.489 29.7351L252.654 48.8717C252.092 50.7246 252.373 51.6773 253.328 51.6773C254.507 51.6773 256.584 50.2745 259.332 46.9068L260.511 47.8047C256.808 53.192 252.992 55.9429 249.96 55.9429C248.277 55.9429 247.155 55.045 247.155 52.9134C247.155 52.0727 247.324 51.0057 247.717 49.7148L253.833 29.7374H249.232L249.736 27.7726H254.395L255.686 23.619L259.728 21.2611L260.795 22.2709L259.111 27.7702H265.17L264.665 29.7351H258.489Z" fill="#008078"/>
<path d="M280.043 52.518C280.043 49.9363 281.727 45.7279 283.354 40.9002C284.533 37.4778 285.766 33.8862 285.766 32.7621C285.766 31.8071 285.261 31.3593 284.363 31.3593C281.108 31.3593 275.947 38.3185 272.241 44.4346L269.323 55.2688H264.553L274.375 18.5674C274.88 16.6025 274.151 16.0428 271.345 16.0428H270.221L270.502 14.64L279.312 12.5632L280.434 13.7422L274.765 34.6746C273.755 38.49 271.791 42.3078 270.612 43.8773L271.229 44.2131C278.636 31.6975 282.846 27.0961 286.886 27.0961C289.074 27.0961 290.758 28.106 290.758 30.6877C290.758 33.0455 289.186 37.535 287.841 41.4075C286.55 45.223 285.204 49.4885 285.204 50.4436C285.204 51.2295 285.597 51.6773 286.383 51.6773C287.281 51.6773 289.077 50.6674 291.77 46.9068L293.061 47.6927C289.131 53.866 285.485 55.9428 283.13 55.9428C281.558 55.9428 280.043 54.9878 280.043 52.518Z" fill="#008078"/>
<path d="M301.371 41.5195C301.147 42.6984 300.978 43.9321 300.978 45.223C300.978 49.9934 303.109 51.6201 306.253 51.6201C309.002 51.6201 311.471 50.3864 314.334 46.9068L315.513 47.6927C312.819 51.5082 309.059 55.9428 303.502 55.9428C300.249 55.9428 296.095 54.3709 296.095 48.0309C296.095 38.4352 305.186 27.0985 313.941 27.0985C316.69 27.0985 319.048 28.0536 319.048 30.6901C319.048 35.4581 311.529 40.3405 301.371 41.5195ZM301.709 40.2286C307.151 39.4998 313.717 36.6942 313.717 32.2596C313.717 30.128 312.315 29.1158 310.576 29.1158C307.375 30.4638 303.336 34.6722 301.709 40.2286Z" fill="#008078"/>
</svg>
