<svg width="634" height="188" viewBox="0 0 634 188" fill="none" xmlns="http://www.w3.org/2000/svg">
<g clip-path="url(#clip0_1215_22830)">
<path d="M-0.202484 81.3063L0.607493 78.4039C11.7495 77.8253 14.4157 75.9691 17.0867 65.989L21.961 47.5379L13.49 16.0935C10.5876 5.29861 9.66188 3.55812 4.44042 2.97957L5.13469 0.0771484H32.2882L31.3625 2.97957C24.6272 3.21099 22.4238 4.37292 22.4238 8.08532C22.4238 10.2886 22.771 11.682 23.1181 12.8439L28.9229 35.3545C29.6172 38.257 30.0849 40.3446 30.0849 42.2008C30.0849 43.1313 29.9692 43.9413 29.9692 44.5198H30.432C31.5939 41.7331 32.4039 40.4603 36.1163 35.8174L54.336 13.0754C56.655 10.1729 57.9327 8.08531 57.9327 6.46054C57.9327 3.78954 55.2617 3.44241 49.8088 2.97957L50.7345 0.0771484H73.8285L73.0137 2.97957C68.0236 3.55812 65.5889 5.76627 61.2931 11.2192L32.9825 47.4222L27.6453 67.9609C25.5577 76.3162 28.2239 77.8253 37.8568 78.4039L37.0468 81.3063H-0.202484Z" fill="#008078"/>
<path d="M55.4883 66.1047C55.4883 49.857 68.9493 23.0554 90.65 23.0554C98.1905 23.0554 107.708 26.4207 107.708 39.6503C107.708 55.8981 94.2467 82.6996 72.546 82.6996C65.0055 82.6996 55.4883 79.3344 55.4883 66.1047ZM96.9177 38.7198C96.9177 30.9431 93.8995 27.3464 88.6781 27.3464C74.7542 27.3464 66.2832 54.037 66.2832 67.0304C66.2832 74.8072 69.3013 78.4039 74.5228 78.4039C88.4466 78.4039 96.9177 51.718 96.9177 38.7198Z" fill="#008078"/>
<path d="M111.999 75.6219C111.999 73.7657 112.346 71.5624 113.276 68.66L124.303 34.4288C125.228 31.5264 124.071 30.0173 121.053 30.0173H115.832L116.41 27.3463L134.051 22.9348L136.486 25.3696L122.909 69.6965C122.099 72.4832 123.025 73.8718 125.113 73.8718C130.45 73.8718 140.43 62.4983 149.947 47.1811L155.863 24.4391H166.074L153.891 70.1594C153.307 72.4784 153.659 73.8718 155.516 73.8718C157.719 73.8718 163.056 70.9694 167.468 63.8917L170.139 65.6322C163.64 76.5379 154.011 82.6899 148.674 82.6899C144.615 82.6899 142.522 80.6023 142.522 76.0751C142.522 68.5298 148.554 55.7678 153.428 47.8754L152.15 47.2968C140.083 68.0669 130.334 82.6899 119.891 82.6899C115.48 82.6996 111.999 81.1905 111.999 75.6219Z" fill="#008078"/>
<path d="M255.533 65.7575C247.525 77.5938 239.638 82.6996 234.411 82.6996C231.393 82.6996 228.38 81.4219 228.38 75.8533C228.38 69.3542 232.907 60.6518 238.823 50.3246L237.661 49.8617C226.635 67.498 217.006 82.6996 205.98 82.6996C200.759 82.6996 196.347 79.5657 196.347 71.5576C196.347 58.9113 205.512 40.3445 219.673 29.8968C224.778 26.3001 231.856 23.0505 236.499 23.0505C239.286 23.0505 241.952 23.8605 244.039 25.8372L244.738 23.981L253.094 21.1943L254.719 22.8191L239.633 68.8866C238.239 72.8304 239.17 73.8766 240.674 73.8766C242.877 73.8766 246.821 72.1361 253.089 64.0122L255.533 65.7575ZM241.489 33.4983C239.517 30.9478 236.036 28.2768 229.074 28.2768C215.15 34.3131 206.911 54.7361 206.911 67.498C206.911 71.3261 208.304 73.65 211.091 73.65C216.891 73.65 225.362 64.1328 236.851 46.8436L241.489 33.4983Z" fill="#008078"/>
<path d="M307.28 24.2175L303.684 36.9794H301.596C300.434 36.2852 299.161 36.0489 297.884 36.0489C293.703 36.0489 285.816 43.8257 274.91 63.5496L270.267 81.3016H260.056L272.239 35.697C273.401 31.4012 271.892 30.0127 267.249 30.0127H264.115L264.694 27.226L281.983 23.0507L284.302 25.4855L280.011 41.2656C278.386 47.3018 277.34 52.8704 271.54 63.1976L272.818 63.7762C285.58 38.9417 295.097 23.0459 302.989 23.0459C304.609 23.0555 306.234 23.287 307.28 24.2175Z" fill="#008078"/>
<path d="M312.844 52.8752C312.381 55.31 312.029 57.8653 312.029 60.5314C312.029 70.3958 316.441 73.7611 322.94 73.7611C328.624 73.7611 333.73 71.2106 339.65 64.0124L342.085 65.6372C336.517 73.5297 328.74 82.6949 317.251 82.6949C310.52 82.6949 301.933 79.4454 301.933 66.3315C301.933 46.487 320.732 23.0459 338.836 23.0459C344.52 23.0459 349.394 25.0178 349.394 30.4707C349.399 40.3447 333.85 50.4405 312.844 52.8752ZM313.543 50.2091C324.796 48.7 338.378 42.9 338.378 33.7299C338.378 29.3184 335.475 27.2308 331.879 27.2308C325.264 30.0175 316.908 38.7199 313.543 50.2091Z" fill="#008078"/>
<path d="M0.0289307 186.42V107.115H18.157L56.1102 171.802C55.9945 168.403 55.8836 164.667 55.8836 161.041V107.115H68.0043V186.42H51.6891L11.9231 118.782C12.0388 122.519 12.0388 125.691 12.0388 128.979V186.42H0.0289307Z" fill="black"/>
<path d="M79.3344 146.765C79.3344 121.612 95.6496 105.186 117.398 105.186C139.147 105.186 155.578 121.728 155.578 146.765C155.578 172.255 139.036 188.228 117.398 188.228C95.7605 188.228 79.3344 172.371 79.3344 146.765ZM143.009 146.765C143.009 127.393 132.586 115.383 117.403 115.383C102.221 115.383 91.8022 127.277 91.8022 146.765C91.8022 166.363 102.11 178.147 117.403 178.147C132.696 178.147 143.009 166.479 143.009 146.765Z" fill="black"/>
<path d="M183.739 186.42V117.196H156.663V107.115H222.71V117.196H195.744V186.415H183.739V186.42Z" fill="black"/>
<path d="M310.178 186.42L301.456 163.534H266.564L257.954 186.42H245.153L277.215 107.115H291.375L323.547 186.42H310.178ZM270.412 153.452H297.715L286.611 124.336C285.705 121.844 284.909 119.578 284.119 117.201C283.323 119.578 282.417 121.96 281.4 124.336L270.412 153.452Z" fill="black"/>
<path d="M331.29 186.42V107.115H343.3V176.223H384.083V186.42H331.29Z" fill="black"/>
<path d="M385.472 146.765C385.472 121.612 401.787 105.186 423.536 105.186C445.285 105.186 461.716 121.728 461.716 146.765C461.716 172.255 445.174 188.228 423.536 188.228C401.898 188.233 385.472 172.371 385.472 146.765ZM449.142 146.765C449.142 127.393 438.718 115.383 423.536 115.383C408.354 115.383 397.935 127.277 397.935 146.765C397.935 166.363 408.243 178.147 423.536 178.147C438.829 178.147 449.142 166.479 449.142 146.765Z" fill="black"/>
<path d="M472.371 186.42V107.115H490.499L528.452 171.802C528.341 168.403 528.226 164.667 528.226 161.041V107.115H540.346V186.42H524.031L484.265 118.787C484.376 122.524 484.376 125.696 484.376 128.984V186.425H472.371V186.42Z" fill="black"/>
<path d="M553.947 186.42V107.115H606.851V117.196H565.952V140.647H605.149V150.844H565.952V176.223H608.322V186.42H553.947Z" fill="black"/>
<path d="M619.551 186.42V171.918H634.053V186.42H619.551Z" fill="black"/>
</g>
<defs>
<clipPath id="clip0_1215_22830">
<rect width="634" height="187.548" fill="white"/>
</clipPath>
</defs>
</svg>
